<svg width="512" height="512" viewBox="0 0 512 512" fill="none" xmlns="http://www.w3.org/2000/svg">
  <rect width="512" height="512" rx="128" fill="#ea580c"/>
  <path d="M128 320C128 297.889 136.779 276.685 152.408 261.056C168.037 245.427 189.241 236.648 211.352 236.648H300.648C322.759 236.648 343.963 245.427 359.592 261.056C375.221 276.685 384 297.889 384 320V320C384 337.674 376.976 354.624 364.474 367.126C351.972 379.628 335.022 386.652 317.348 386.652H194.652C176.978 386.652 160.028 379.628 147.526 367.126C135.024 354.624 128 337.674 128 320V320Z" fill="white"/>
  <path d="M160 236.648V211.352C160 189.241 168.779 168.037 184.408 152.408C200.037 136.779 221.241 128 243.352 128H268.648C290.759 128 311.963 136.779 327.592 152.408C343.221 168.037 352 189.241 352 211.352V236.648" stroke="white" stroke-width="32" stroke-linecap="round"/>
  <circle cx="200" cy="300" r="16" fill="#ea580c"/>
  <circle cx="312" cy="300" r="16" fill="#ea580c"/>
</svg>
